<?xml version="1.0" encoding="UTF-8" standalone="no"?>
<svg
   xmlns:dc="http://purl.org/dc/elements/1.1/"
   xmlns:cc="http://creativecommons.org/ns#"
   xmlns:rdf="http://www.w3.org/1999/02/22-rdf-syntax-ns#"
   xmlns:svg="http://www.w3.org/2000/svg"
   xmlns="http://www.w3.org/2000/svg"
   xmlns:sodipodi="http://sodipodi.sourceforge.net/DTD/sodipodi-0.dtd"
   xmlns:inkscape="http://www.inkscape.org/namespaces/inkscape"
   version="1.1"
   id="svg10"
   width="512"
   height="512"
   viewBox="0 0 512 512"
   sodipodi:docname="Doop News_p2.svg"
   inkscape:version="1.0 (6e3e5246a0, 2020-05-07)"
   inkscape:export-filename="/home/alcamo/Documentos/CampusTransparencia/Doop News_I.png"
   inkscape:export-xdpi="96"
   inkscape:export-ydpi="96">
  <metadata
     id="metadata16">
    <rdf:RDF>
      <cc:Work
         rdf:about="">
        <dc:format>image/svg+xml</dc:format>
        <dc:type
           rdf:resource="http://purl.org/dc/dcmitype/StillImage" />
        <dc:title></dc:title>
      </cc:Work>
    </rdf:RDF>
  </metadata>
  <defs
     id="defs14">
    <rect
       x="195.39107"
       y="144.87533"
       width="56.234503"
       height="66.718902"
       id="rect54" />
    <rect
       x="334.54764"
       y="227.79739"
       width="46.703231"
       height="87.6877"
       id="rect48" />
    <rect
       x="171.56289"
       y="190.62543"
       width="184.90667"
       height="149.64097"
       id="rect30" />
    <rect
       id="rect30-4"
       height="149.64098"
       width="184.90668"
       y="190.62543"
       x="171.5629" />
    <rect
       id="rect216"
       height="149.64098"
       width="184.90668"
       y="190.62543"
       x="171.5629" />
  </defs>
  <sodipodi:namedview
     inkscape:document-rotation="0"
     pagecolor="#ffffff"
     bordercolor="#666666"
     borderopacity="1"
     objecttolerance="10"
     gridtolerance="10"
     guidetolerance="10"
     inkscape:pageopacity="0"
     inkscape:pageshadow="2"
     inkscape:window-width="1299"
     inkscape:window-height="713"
     id="namedview12"
     showgrid="false"
     inkscape:zoom="0.78239463"
     inkscape:cx="-33.495852"
     inkscape:cy="306.23678"
     inkscape:window-x="67"
     inkscape:window-y="27"
     inkscape:window-maximized="1"
     inkscape:current-layer="g18" />
  <g
     inkscape:groupmode="layer"
     inkscape:label="Image"
     id="g18">
    <text
       xml:space="preserve"
       style="font-style:normal;font-weight:normal;font-size:40px;line-height:1.25;font-family:sans-serif;white-space:pre;inline-size:7.62502;fill:#000000;fill-opacity:1;stroke:none"
       x="176.32854"
       y="234.46928"
       id="text36"><tspan
         x="176.32854"
         y="234.46928"><tspan> </tspan></tspan></text>
    <text
       xml:space="preserve"
       id="text46"
       style="fill:black;fill-opacity:1;line-height:1.25;stroke:none;font-family:sans-serif;font-style:normal;font-weight:normal;font-size:40px;white-space:pre;shape-inside:url(#rect48);" />
    <text
       xml:space="preserve"
       id="text52"
       style="fill:black;fill-opacity:1;line-height:1.25;stroke:none;font-family:sans-serif;font-style:normal;font-weight:normal;font-size:40px;white-space:pre;shape-inside:url(#rect54);" />
    <path
       style="fill:#f9f9f9;stroke:#010000;stroke-width:0.993811"
       d=""
       id="path64" />
    <path
       style="fill:#f9f9f9;stroke:#010000;stroke-width:0.993811"
       d=""
       id="path66" />
    <path
       style="fill:#f9f9f9;stroke:#010000;stroke-width:0.993811"
       d=""
       id="path68" />
    <path
       style="fill:#f9f9f9;stroke:#010000;stroke-width:0.993811"
       d=""
       id="path70" />
    <path
       style="fill:#f9f9f9;stroke:#010000;stroke-width:0.993811"
       d=""
       id="path72" />
    <path
       style="fill:#f9f9f9;stroke:#010000;stroke-width:0.993811"
       d=""
       id="path74" />
    <path
       style="fill:#000000;stroke:#010000;stroke-width:0.954628"
       d=""
       id="path78" />
    <path
       style="fill:#000000;stroke:#010000;stroke-width:0.954628"
       d=""
       id="path80" />
    <path
       style="fill:#000000;stroke:#010000;stroke-width:0.954628"
       d=""
       id="path90" />
    <path
       style="fill:#800000;stroke:#010000;stroke-width:0.954628"
       d=""
       id="path92" />
    <path
       style="fill:#000000;stroke:#010000;stroke-width:0.954628"
       d=""
       id="path98" />
    <path
       style="fill:#000000;stroke:#010000;stroke-width:0.954628"
       d=""
       id="path102" />
    <path
       style="fill:#000000;stroke:#010000;stroke-width:0.954628"
       d=""
       id="path104" />
    <path
       style="fill:#000000;stroke:#010000;stroke-width:0.954628"
       d=""
       id="path118" />
    <path
       style="fill:#000000;stroke:#010000;stroke-width:0.954628"
       d=""
       id="path120" />
    <path
       style="fill:#000000;stroke:#010000;stroke-width:0.954628"
       d=""
       id="path122" />
    <path
       style="fill:#000000;stroke:#010000;stroke-width:0.954628"
       d=""
       id="path124" />
    <path
       style="fill:#000000;stroke:#010000;stroke-width:0.954628"
       d=""
       id="path126" />
    <path
       style="fill:#000000;stroke:#010000;stroke-width:0.231957"
       d=""
       id="path136" />
    <path
       style="fill:#000000;stroke:#010000;stroke-width:0.231957"
       d=""
       id="path138" />
    <path
       style="fill:#000000;stroke:#010000;stroke-width:0.231957"
       d=""
       id="path140" />
    <path
       style="fill:#000000;stroke:#010000;stroke-width:0.231957"
       d=""
       id="path142" />
    <path
       style="fill:#000000;stroke:#010000;stroke-width:0.231957"
       d="m 262.48459,184.10054 c 0,-0.4323 0.0618,-0.49406 0.27791,-0.27791 0.21615,0.21615 0.21615,0.33967 0,0.55582 -0.21615,0.21615 -0.27791,0.1544 -0.27791,-0.27791 z"
       id="path144" />
    <path
       style="fill:#000000;stroke:#010000;stroke-width:0.231957"
       d=""
       id="path146" />
    <ellipse
       ry="103.66994"
       rx="97.679207"
       cy="271.26883"
       cx="299.20724"
       id="path91"
       style="fill:#f9f9f9;stroke:#010000;stroke-width:1.72201" />
    <path
       id="path88-0"
       d="m 221.07312,204.75972 c -11.45399,-7.23945 -16.76674,-17.18343 -16.76674,-31.38269 0,-32.58841 37.69986,-47.72946 58.73579,-23.58953 5.03777,5.78115 9.3103,15.69453 9.3402,21.67173 0.006,1.01837 -5.49583,5.46707 -12.22429,9.88601 -6.72844,4.41896 -15.96921,12.30157 -20.53504,17.51692 -4.5658,5.21537 -9.33577,9.47957 -10.59992,9.47604 -1.26413,-0.003 -4.84165,-1.61385 -7.95,-3.57848 z"
       style="fill:#000000;stroke:#010000;stroke-width:1.69351" />
    <path
       id="path96-5"
       d="m 363.57219,201.15905 c -5.17302,-5.38993 -14.60551,-13.75688 -20.96106,-18.59325 -12.93123,-9.84023 -13.37368,-11.61603 -5.70434,-22.89496 6.17216,-9.07709 13.8457,-13.40345 25.0617,-14.12984 34.09653,-2.20824 48.32082,40.20195 20.74414,61.84938 -2.5003,1.9627 -5.71348,3.56855 -7.14044,3.56855 -1.42697,0 -6.82696,-4.40994 -12,-9.79988 z"
       style="fill:#000000;stroke:#010000;stroke-width:1.59173" />
    <path
       id="path154-9"
       d="m 303.62468,321.12704 c -1.19361,-0.16215 -3.24866,-0.73532 -4.56678,-1.27372 l -2.39657,-0.97888 -3.1616,1.01163 c -2.76293,0.88407 -3.80397,1.03036 -8.25534,1.16015 -4.54884,0.13261 -5.33595,0.069 -7.35815,-0.59475 -2.56518,-0.84198 -5.2441,-2.46462 -7.02449,-4.25479 -1.05897,-1.06479 -1.20925,-1.434 -1.20925,-2.97093 0,-1.54411 0.13545,-1.87272 1.12697,-2.73423 0.65636,-0.57032 1.52679,-0.9792 2.08447,-0.9792 0.52661,0 2.74303,0.87699 4.92538,1.94886 3.27821,1.61011 4.34825,1.9724 6.15616,2.08436 2.63211,0.16297 4.80838,-0.35335 6.12356,-1.45282 l 0.97165,-0.81228 0.11684,-7.90353 c 0.0915,-6.18889 0.016,-8.02176 -0.34837,-8.44852 -0.25581,-0.29976 -2.71211,-1.61257 -5.45842,-2.91733 -3.17275,-1.50736 -5.57536,-2.89939 -6.58965,-3.81792 -1.40221,-1.2698 -1.59631,-1.61909 -1.59631,-2.87256 0,-1.94211 1.65711,-3.70163 4.81978,-5.11763 4.45515,-1.99467 6.16635,-2.26338 14.50119,-2.27707 5.25153,-0.009 8.14142,0.12995 9.48484,0.45478 2.71999,0.6577 7.32317,2.79461 8.87603,4.12045 1.1107,0.94834 1.31139,1.33235 1.31139,2.50929 0,1.19782 -0.21488,1.58981 -1.55682,2.84018 -1.47231,1.37185 -3.61561,2.50831 -10.27121,5.44619 l -2.87014,1.26693 -0.2536,2.94799 c -0.31521,3.66407 0.0365,13.11935 0.52076,13.99923 0.63979,1.16252 3.07418,1.8536 6.58399,1.8691 l 3.21862,0.0147 3.8927,-1.94097 c 2.14099,-1.06751 4.30473,-1.94095 4.80836,-1.94095 1.39001,0 3.30443,2.01983 3.30443,3.48636 0,2.80938 -5.06605,6.71791 -10.01178,7.72423 -2.6492,0.53904 -7.45979,0.73544 -9.89858,0.40413 z m -18.55592,-2.39128 c 0.13454,-0.21157 -0.49283,-0.33962 -1.64792,-0.33637 -1.33371,0.004 -1.7149,0.0996 -1.33807,0.33637 0.69247,0.43518 2.7094,0.43518 2.98599,0 z m 21.05984,0.0227 c -0.19529,-0.1866 -0.84373,-0.2011 -1.56324,-0.035 l -1.22952,0.28391 1.56325,0.0349 c 0.97165,0.0217 1.43693,-0.0857 1.22951,-0.2839 z m 6.51643,-0.36436 c 0.83871,-0.2612 0.82777,-0.27504 -0.24273,-0.30756 -0.61653,-0.0187 -1.21866,0.11962 -1.33807,0.30756 -0.24966,0.39285 0.3194,0.39285 1.5808,0 z m -37.23677,-1.71877 c 0,-0.19379 -0.27665,-0.45267 -0.61476,-0.57532 -0.33812,-0.12258 -0.82133,-0.50212 -1.07379,-0.8433 -0.56958,-0.76969 -1.28391,-0.8414 -0.84872,-0.0851 0.24996,0.43435 2.11416,1.84529 2.44945,1.85388 0.0482,0.001 0.0878,-0.1563 0.0878,-0.35007 z m 28.27887,0.0103 c -0.27819,-0.43774 -0.52692,-0.43774 -0.52692,0 0,0.18787 0.16739,0.3416 0.37201,0.3416 0.20461,0 0.27433,-0.15373 0.15491,-0.3416 z m -12.31369,-0.7124 c -0.11316,-0.17797 -0.3554,-0.23359 -0.53841,-0.12361 -0.183,0.11004 -0.2402,0.34559 -0.1271,0.52356 0.11316,0.17797 0.35537,0.23358 0.53839,0.12361 0.18302,-0.11004 0.24019,-0.34559 0.12712,-0.52356 z m 27.59482,-0.34898 c 0,-0.4393 -0.20336,-0.3776 -0.70926,0.21517 -0.37124,0.43499 -0.34951,0.48497 0.13258,0.30506 0.31714,-0.1183 0.57662,-0.35245 0.57662,-0.52023 z m 2.32309,-2.60077 c -0.25217,-0.24523 -2.71817,-0.1571 -2.99639,0.10709 -0.0806,0.0764 0.61768,0.13894 1.55153,0.13894 0.93384,0 1.58403,-0.11077 1.44486,-0.24605 z m -47.63955,-0.91303 c 0,-0.32406 -1.05154,-0.48738 -1.23899,-0.19243 -0.11418,0.17968 0.11786,0.32669 0.51568,0.32669 0.39783,0 0.72331,-0.0605 0.72331,-0.13423 z m 40.04959,-26.85737 c 0.25834,-0.46939 0.26565,-0.87612 0.0231,-1.28104 -0.3185,-0.53163 -0.35657,-0.51631 -0.36615,0.14736 -0.006,0.40738 -0.10669,0.98384 -0.22391,1.28103 -0.30665,0.77716 0.11913,0.66647 0.56702,-0.14735 z m -2.57196,-0.89997 c -0.31273,-0.30411 -0.94342,0.21616 -0.94342,0.77824 0,0.44612 0.0776,0.44116 0.56874,-0.0364 0.31282,-0.30418 0.48142,-0.63801 0.37468,-0.74181 z"
       style="fill:#000000;stroke:#010000;stroke-width:0.346961" />
    <ellipse
       transform="matrix(-0.42057326,0.90725858,-0.99906069,0.04333296,0,0)"
       ry="19.588728"
       rx="22.990694"
       cy="-378.83249"
       cx="280.86166"
       id="path163"
       style="fill:#000000;stroke:#010000;stroke-width:2.5207" />
    <ellipse
       transform="matrix(0.90244213,0.43081109,0,1,0,0)"
       ry="19.202192"
       rx="25.00469"
       cy="83.240654"
       cx="366.5954"
       id="path165"
       style="fill:#000000;stroke:#010000;stroke-width:2.22474" />
    <ellipse
       transform="scale(-1,1)"
       ry="8.1818018"
       rx="8.3614788"
       cy="239.91385"
       cx="-320.29504"
       style="fill:#f9f9f9;stroke:#010000;stroke-width:1.513"
       id="path24-0" />
    <ellipse
       ry="8.1696043"
       rx="8.6461678"
       cy="240.33681"
       cx="267.56644"
       style="fill:#f9f9f9;stroke:#010000;stroke-width:1.5374"
       id="path24-0-2" />
    <text
       transform="matrix(15.004206,0,0,13.211775,-2383.8602,-2144.8442)"
       style="font-style:normal;font-variant:normal;font-weight:bold;font-stretch:normal;font-size:4.52084px;line-height:0;font-family:sans-serif;-inkscape-font-specification:'sans-serif Bold';white-space:pre;shape-inside:url(#rect30-4);fill:#000000;fill-opacity:1;stroke:none;"
       id="text28-1"
       xml:space="preserve"><tspan
         x="171.5625"
         y="193.26863"><tspan
           style="font-style:normal;font-variant:normal;font-weight:normal;font-stretch:normal;line-height:0.65;font-family:sans-serif;-inkscape-font-specification:sans-serif"> Doop</tspan><tspan
           style="font-style:normal;font-variant:normal;font-weight:bold;font-stretch:normal;font-size:4.52084px;line-height:0.65;font-family:sans-serif;-inkscape-font-specification:'sans-serif Bold';fill:#000000">
</tspan></tspan><tspan
         x="171.5625"
         y="196.20718"><tspan
           style="font-style:normal;font-variant:normal;font-weight:bold;font-stretch:normal;font-size:4.52084px;line-height:0.65;font-family:sans-serif;-inkscape-font-specification:'sans-serif Bold';fill:#000000">    </tspan><tspan
           style="font-style:normal;font-variant:normal;font-weight:normal;font-stretch:normal;font-size:2.67141px;line-height:0.65;font-family:sans-serif;-inkscape-font-specification:sans-serif;fill:#000000">News</tspan><tspan
           style="font-style:normal;font-variant:normal;font-weight:bold;font-stretch:normal;font-size:4.52084px;line-height:0.65;font-family:sans-serif;-inkscape-font-specification:'sans-serif Bold';fill:#000000"> </tspan></tspan></text>
  </g>
</svg>
